<svg width="260" height="240" viewBox="0 0 260 240" fill="none" xmlns="http://www.w3.org/2000/svg">
<path d="M23.7827 45.7812C23.891 45.2396 24.4367 44.7326 24.7209 44.28C25.6907 42.7354 26.5595 41.1382 27.5933 39.6321C29.0663 37.4861 30.7043 35.4628 32.2845 33.3965C32.3225 33.3468 34.0726 30.963 34.1176 31.0004C34.5586 31.3679 34.6266 34.0577 34.7383 34.5657C35.2889 37.0711 36.2355 39.3931 37.1777 41.7684C37.9873 43.8096 38.5042 46.2407 39.6315 48.1195" stroke="#DF0000" stroke-linecap="round"/>
<path d="M23.2631 45.7812C21.9918 45.6656 20.5632 45.1003 19.3514 44.7275C17.2918 44.0937 15.216 43.7044 13.1302 43.183C11.4381 42.7599 9.91348 42.5047 8.19372 42.4035C7.12312 42.3406 10.8165 46.8093 11.3115 47.3978C12.8568 49.2346 19.8583 53.0987 21.1628 55.0555" stroke="#DF0000" stroke-linecap="round"/>
<path d="M39.6315 48.3793C41.7781 48.4923 43.9473 48.7485 46.0981 48.899C48.3106 49.0537 50.5339 49.1627 52.7379 49.4186C53.5511 49.513 54.6157 49.5794 55.3216 50.0681C55.7605 50.372 56 50.712 56 51.2373C56 51.9964 55.2933 51.7704 54.6576 51.9013C49.6976 52.9225 44.8508 54.0877 40.1512 55.6542" stroke="#DF0000" stroke-linecap="round"/>
<path d="M21.1844 57.4729C17.5762 60.7532 12.6561 68.0181 12.6561 68.0181L10.3298 72.2248C10.3298 72.2248 13.0702 71.9768 13.6786 71.8784C16.7373 71.3836 19.5573 70.4406 22.3392 69.0781C24.9293 67.8095 27.6407 66.3459 29.7007 64.2859C30.0968 63.8898 30.3532 63.1513 30.7977 62.9291" stroke="#DF0000" stroke-linecap="round"/>
<path d="M32.5073 64.5782C34.3575 66.6339 36.8463 68.2085 38.9513 70.0128C41.0554 71.8164 43.2217 74.2974 45.9215 75.1973C47.2 75.6235 46.668 72.9205 46.603 72.342C46.4695 71.1542 46.0749 70.0637 45.5505 68.9949C45.0166 67.9066 44.7137 66.8346 44.3083 65.6996C43.7745 64.2048 43.405 62.5501 42.6003 61.1707C42.293 60.6439 41.8119 59.6716 41.6773 59.0658C41.5929 58.6862 41.1604 57.259 40.8922 57.1249" stroke="#DF0000" stroke-linecap="round"/>
<path d="M32.5 64.5C32.5 70.2455 40.7738 101.414 42 107C44.6438 119.044 49.8884 130.344 53.4229 142.177C54.675 146.368 55.6009 150.802 56.3151 155.087" stroke="#DF0000" stroke-linecap="round"/>
<path d="M60.3297 148.67C55.1357 142.827 46.3313 148.363 44.5681 154.482C43.7018 157.489 43.8901 160.775 43.8901 163.864C43.8901 167.607 43.7403 171.293 44.582 174.962C44.7006 175.48 45.5912 180.201 45.8828 180.055" stroke="#DF0000" stroke-linecap="round"/>
<path d="M60.8279 149.168C60.9721 150.466 62.7091 152.374 63.3464 153.444C65.6429 157.302 67.6081 161.114 69.1584 165.331C69.9276 167.424 70.6265 169.566 71.3448 171.641C72.0267 173.611 72.9396 175.758 73.2821 177.813" stroke="#DF0000" stroke-linecap="round"/>
<path d="M184.105 153.213C181.359 151.33 177.717 150.885 174.729 150.434C165.479 149.039 156.032 148.577 146.803 148.993C128.203 149.832 107.427 152.802 93.9622 169.547C90.5787 173.754 87.3115 179.372 87.7631 185.796C88.1584 191.418 90.6238 196.641 94.0976 200.388C101.513 208.387 112.312 210.798 121.446 213.029C137.192 216.875 153.143 218.792 169.035 219.166C183.561 219.508 197.831 219.525 211.546 214.018C217.65 211.566 223.972 208.712 225.185 200.149C225.718 196.388 225.313 192.891 223.637 189.464C220.965 183.997 215.348 176.733 211.546 172.423" stroke="#DF0000" stroke-linecap="round"/>
<path d="M118.995 146.38C117.414 133.324 119.708 120.492 123.502 108.012C126.147 99.3117 132.127 83.7235 143.845 85.1137C146.266 85.401 148.183 86.9077 149.157 89.1505C152.269 96.3216 152.705 105.009 153.308 112.683C153.855 119.654 154.212 126.636 154.794 133.604C154.987 135.91 154.518 144.095 154.794 146.38" stroke="#DF0000" stroke-linecap="round"/>
<path d="M189.144 153.975C191.158 144.101 196.516 135.375 201.899 126.983C206.791 119.355 212.135 112.113 218.282 105.453C220.119 103.462 222.078 101.061 224.335 99.5C226.387 98.0813 231.325 98.6998 233.516 99.3242C239.739 101.098 239.976 107.838 240.135 113.372C240.316 119.663 238.961 125.723 237.416 131.788C235.101 140.871 232.222 149.786 228.718 158.479C227.017 162.699 225.167 166.865 223.253 170.992C222.646 172.301 221.967 173.517 221.078 174.651C219.979 176.053 218.581 176.766 217.149 177.713" stroke="#DF0000" stroke-linecap="round"/>
<path d="M152.555 180.528C153.2 183.302 155.603 182.148 157.625 181.678C158.763 181.414 159.542 181.359 158.289 180.78C156.692 180.042 154.315 180.701 152.683 181.08" stroke="#DF0000" stroke-linecap="round"/>
<path d="M146.541 172.533C145.402 172.671 146.309 173.581 147.034 172.41C147.364 171.877 146.566 171.527 146.192 172.004C145.787 172.521 146.12 173.214 146.697 172.641C147.175 172.167 147.382 172.005 146.475 171.986C145.307 171.961 146.234 172.615 146.145 171.883C146.101 171.519 145.309 172.47 145.476 172.773C145.71 173.201 146.713 171.048 145.813 171.765C145.462 172.044 143.652 173.112 145.105 172.993C145.737 172.941 146.064 172.904 146.288 172.278C146.534 171.591 146.019 171.575 145.629 172.072C145.153 172.679 145.617 173.228 146.086 172.445C146.788 171.277 144.214 171.253 144.501 172.066C144.824 172.98 146.884 172.691 145.842 171.475" stroke="#DF0000" stroke-linecap="round"/>
<path d="M172.04 178.021C171.504 178.155 172.07 178.557 172.402 178.517C172.836 178.464 174.108 178.166 174.416 177.86C175.02 177.261 173.496 176.683 173.194 177.596C173.067 177.98 173.706 177.889 173.68 177.68C173.651 177.439 172.875 177.31 172.693 177.387C171.959 177.696 173.57 178.96 173.696 177.678C173.781 176.815 172.456 177.11 172.225 177.713C171.787 178.853 172.988 179.051 173.622 178.242C174.156 177.56 173.039 176.971 172.527 177.327C171.597 177.974 173.241 177.835 173.695 177.535" stroke="#DF0000" stroke-linecap="round"/>
<path d="M122.596 178.943C121.16 178.136 119.392 177.703 117.868 177.105C113.015 175.198 108.17 173.269 103.482 170.978C96.8273 167.727 90.5632 163.818 84.3053 159.879" stroke="#DF0000" stroke-linecap="round"/>
<path d="M113.82 184.29C104.62 182.654 95.2428 182.245 86.1788 179.8C83.021 178.949 78.4103 177.939 76.688 174.794" stroke="#DF0000" stroke-linecap="round"/>
<path d="M187.54 189.355C190.101 189.278 192.706 189.628 195.291 189.558C205.796 189.274 216.254 188.348 226.72 187.465" stroke="#DF0000" stroke-linecap="round"/>
<path d="M191.94 197.389C194.161 198.027 196.555 198.228 198.842 198.441C205.951 199.105 213.096 199.07 220.229 199.103C225.295 199.127 230.364 199.143 235.426 199.357C235.965 199.379 236.48 199.42 237.013 199.355" stroke="#DF0000" stroke-linecap="round"/>
<path d="M146.117 193.082C148.241 192.964 150.1 191.249 151.692 190.011C151.909 189.842 151.848 190.285 151.858 190.385C151.947 191.279 152.353 192.14 152.785 192.916C153.242 193.738 153.997 194.657 154.832 195.074" stroke="#DF0000" stroke-linecap="round"/>
</svg>
